# xmcd CD database file
#
# Track frame offsets:
#	150
#	23863
#	40822
#	61527
#	69729
#	99232
#	128506
#	156781
#	198304
#
# Disc length: 2976 seconds
#
# Revision: 0
# Processed by: cddbd v1.5.2PL0 Copyright (c) Steve Scherf et al.
# Submitted via: CDex 1.51
#
DISCID=690b9e09
DTITLE=Radaid - Luz Escondida
DYEAR=2007
DGENRE=New Age
TTITLE0=Lámed
TTITLE1=Agatini nayaguagani
TTITLE2=Cuando salga la luna
TTITLE3=Canto del coyote
TTITLE4=La Martiniana
TTITLE5=Hombre mirando al norte -un pueblo callado al verle partir-
TTITLE6=El puro entendimiento
TTITLE7=Tanjou
TTITLE8=Will u come at last ?
EXTD=YEAR: 2007
EXTT0=
EXTT1=
EXTT2=
EXTT3=
EXTT4=
EXTT5=
EXTT6=
EXTT7=
EXTT8=
PLAYORDER=
